<mxfile host="65bd71144e">
    <diagram name="PÃ¡gina-1" id="qADw8JvcLayF4wyvWSkW">
        <mxGraphModel dx="556" dy="779" grid="1" gridSize="10" guides="1" tooltips="1" connect="1" arrows="1" fold="1" page="0" pageScale="1" pageWidth="827" pageHeight="1169" math="0" shadow="0">
            <root>
                <mxCell id="0"/>
                <mxCell id="1" parent="0"/>
                <mxCell id="s9OgL2fxECBSzDC5f0cS-4" style="edgeStyle=orthogonalEdgeStyle;rounded=0;orthogonalLoop=1;jettySize=auto;html=1;exitX=0.377;exitY=0.002;exitDx=0;exitDy=0;entryX=0.5;entryY=1;entryDx=0;entryDy=0;exitPerimeter=0;" parent="1" source="5nAgZblk7XmkAS8E7ctY-20" edge="1">
                    <mxGeometry relative="1" as="geometry">
                        <mxPoint x="692" y="553" as="sourcePoint"/>
                        <mxPoint x="522" y="384" as="targetPoint"/>
                    </mxGeometry>
                </mxCell>
                <mxCell id="s9OgL2fxECBSzDC5f0cS-5" style="edgeStyle=orthogonalEdgeStyle;rounded=0;orthogonalLoop=1;jettySize=auto;html=1;exitX=0.5;exitY=0;exitDx=0;exitDy=0;entryX=0.5;entryY=1;entryDx=0;entryDy=0;" parent="1" edge="1">
                    <mxGeometry relative="1" as="geometry">
                        <mxPoint x="357" y="553" as="sourcePoint"/>
                        <mxPoint x="522" y="384" as="targetPoint"/>
                        <Array as="points">
                            <mxPoint x="357" y="477"/>
                            <mxPoint x="523" y="477"/>
                        </Array>
                    </mxGeometry>
                </mxCell>
                <mxCell id="1J6NxalkG4rGyS0yLOMl-54" value="*" style="text;html=1;align=center;verticalAlign=middle;resizable=0;points=[];autosize=1;strokeColor=none;fillColor=none;" parent="1" vertex="1">
                    <mxGeometry x="99" y="160" width="30" height="30" as="geometry"/>
                </mxCell>
                <mxCell id="1J6NxalkG4rGyS0yLOMl-55" value="*" style="text;html=1;align=center;verticalAlign=middle;resizable=0;points=[];autosize=1;strokeColor=none;fillColor=none;" parent="1" vertex="1">
                    <mxGeometry x="439" y="160" width="30" height="30" as="geometry"/>
                </mxCell>
                <mxCell id="1J6NxalkG4rGyS0yLOMl-57" value="*" style="text;html=1;align=center;verticalAlign=middle;resizable=0;points=[];autosize=1;strokeColor=none;fillColor=none;" parent="1" vertex="1">
                    <mxGeometry x="409" y="215" width="30" height="30" as="geometry"/>
                </mxCell>
                <mxCell id="1J6NxalkG4rGyS0yLOMl-58" value="0..*" style="text;html=1;align=center;verticalAlign=middle;resizable=0;points=[];autosize=1;strokeColor=none;fillColor=none;" parent="1" vertex="1">
                    <mxGeometry x="417" y="553" width="40" height="30" as="geometry"/>
                </mxCell>
                <mxCell id="1J6NxalkG4rGyS0yLOMl-59" value="1" style="text;html=1;align=center;verticalAlign=middle;resizable=0;points=[];autosize=1;strokeColor=none;fillColor=none;" parent="1" vertex="1">
                    <mxGeometry x="602" y="553" width="30" height="30" as="geometry"/>
                </mxCell>
                <mxCell id="s9OgL2fxECBSzDC5f0cS-3" value="*" style="text;html=1;align=center;verticalAlign=middle;resizable=0;points=[];autosize=1;strokeColor=none;fillColor=none;" parent="1" vertex="1">
                    <mxGeometry x="169" y="214" width="30" height="30" as="geometry"/>
                </mxCell>
                <mxCell id="s9OgL2fxECBSzDC5f0cS-19" style="edgeStyle=orthogonalEdgeStyle;rounded=0;orthogonalLoop=1;jettySize=auto;html=1;entryX=1.053;entryY=0.633;entryDx=0;entryDy=0;entryPerimeter=0;" parent="1" edge="1">
                    <mxGeometry relative="1" as="geometry">
                        <mxPoint x="652" y="248" as="sourcePoint"/>
                        <mxPoint x="579.3599999999999" y="247.98000000000002" as="targetPoint"/>
                    </mxGeometry>
                </mxCell>
                <mxCell id="s9OgL2fxECBSzDC5f0cS-21" value="" style="endArrow=none;html=1;rounded=0;exitX=1;exitY=0.5;exitDx=0;exitDy=0;entryX=0;entryY=0.5;entryDx=0;entryDy=0;" parent="1" source="s9OgL2fxECBSzDC5f0cS-23" edge="1">
                    <mxGeometry width="50" height="50" relative="1" as="geometry">
                        <mxPoint x="502" y="608" as="sourcePoint"/>
                        <mxPoint x="632" y="583" as="targetPoint"/>
                    </mxGeometry>
                </mxCell>
                <mxCell id="s9OgL2fxECBSzDC5f0cS-24" value="" style="endArrow=none;html=1;rounded=0;exitX=1;exitY=0.5;exitDx=0;exitDy=0;entryX=0;entryY=0.5;entryDx=0;entryDy=0;" parent="1" target="s9OgL2fxECBSzDC5f0cS-23" edge="1">
                    <mxGeometry width="50" height="50" relative="1" as="geometry">
                        <mxPoint x="417" y="583" as="sourcePoint"/>
                        <mxPoint x="632" y="583" as="targetPoint"/>
                    </mxGeometry>
                </mxCell>
                <mxCell id="s9OgL2fxECBSzDC5f0cS-23" value="DLC" style="text;html=1;align=center;verticalAlign=middle;resizable=0;points=[];autosize=1;strokeColor=none;fillColor=none;" parent="1" vertex="1">
                    <mxGeometry x="500" y="568" width="50" height="30" as="geometry"/>
                </mxCell>
                <mxCell id="s9OgL2fxECBSzDC5f0cS-25" value="" style="endArrow=none;html=1;rounded=0;exitX=1;exitY=0.5;exitDx=0;exitDy=0;entryX=0;entryY=0.5;entryDx=0;entryDy=0;" parent="1" source="s9OgL2fxECBSzDC5f0cS-26" edge="1">
                    <mxGeometry width="50" height="50" relative="1" as="geometry">
                        <mxPoint x="269" y="270" as="sourcePoint"/>
                        <mxPoint x="439" y="240" as="targetPoint"/>
                    </mxGeometry>
                </mxCell>
                <mxCell id="s9OgL2fxECBSzDC5f0cS-27" value="" style="endArrow=none;html=1;rounded=0;exitX=1;exitY=0.5;exitDx=0;exitDy=0;entryX=0;entryY=0.5;entryDx=0;entryDy=0;" parent="1" target="s9OgL2fxECBSzDC5f0cS-26" edge="1">
                    <mxGeometry width="50" height="50" relative="1" as="geometry">
                        <mxPoint x="169" y="240" as="sourcePoint"/>
                        <mxPoint x="439" y="240" as="targetPoint"/>
                    </mxGeometry>
                </mxCell>
                <mxCell id="s9OgL2fxECBSzDC5f0cS-26" value="Publish" style="text;html=1;align=center;verticalAlign=middle;resizable=0;points=[];autosize=1;strokeColor=none;fillColor=none;" parent="1" vertex="1">
                    <mxGeometry x="274" y="225" width="60" height="30" as="geometry"/>
                </mxCell>
                <mxCell id="XQDS69tv2l-qMOghT7hB-1" value="Soundtrack&amp;nbsp;&amp;nbsp;" style="text;html=1;align=center;verticalAlign=middle;resizable=0;points=[];autosize=1;strokeColor=none;fillColor=none;" parent="1" vertex="1">
                    <mxGeometry x="682" y="480" width="90" height="30" as="geometry"/>
                </mxCell>
                <mxCell id="XQDS69tv2l-qMOghT7hB-3" value="0..*" style="text;html=1;align=center;verticalAlign=middle;resizable=0;points=[];autosize=1;strokeColor=none;fillColor=none;" parent="1" vertex="1">
                    <mxGeometry x="715" y="410" width="40" height="30" as="geometry"/>
                </mxCell>
                <mxCell id="XQDS69tv2l-qMOghT7hB-4" value="1" style="text;html=1;align=center;verticalAlign=middle;resizable=0;points=[];autosize=1;strokeColor=none;fillColor=none;" parent="1" vertex="1">
                    <mxGeometry x="715" y="538" width="30" height="30" as="geometry"/>
                </mxCell>
                <mxCell id="feYnmmiE7Ka1fLVShblL-14" style="edgeStyle=orthogonalEdgeStyle;rounded=0;orthogonalLoop=1;jettySize=auto;html=1;endArrow=none;endFill=0;exitX=1.035;exitY=0.607;exitDx=0;exitDy=0;exitPerimeter=0;" parent="1" source="feYnmmiE7Ka1fLVShblL-13" edge="1">
                    <mxGeometry relative="1" as="geometry">
                        <mxPoint x="470" y="220" as="targetPoint"/>
                    </mxGeometry>
                </mxCell>
                <mxCell id="feYnmmiE7Ka1fLVShblL-19" style="edgeStyle=orthogonalEdgeStyle;rounded=0;orthogonalLoop=1;jettySize=auto;html=1;entryX=0.5;entryY=0;entryDx=0;entryDy=0;endArrow=none;endFill=0;" parent="1" source="feYnmmiE7Ka1fLVShblL-13" edge="1">
                    <mxGeometry relative="1" as="geometry">
                        <mxPoint x="99" y="210" as="targetPoint"/>
                    </mxGeometry>
                </mxCell>
                <mxCell id="feYnmmiE7Ka1fLVShblL-13" value="Develop" style="text;html=1;align=center;verticalAlign=middle;resizable=0;points=[];autosize=1;strokeColor=none;fillColor=none;" parent="1" vertex="1">
                    <mxGeometry x="269" y="168" width="70" height="30" as="geometry"/>
                </mxCell>
                <mxCell id="5nAgZblk7XmkAS8E7ctY-1" value="Company" style="swimlane;fontStyle=0;childLayout=stackLayout;horizontal=1;startSize=30;horizontalStack=0;resizeParent=1;resizeParentMax=0;resizeLast=0;collapsible=1;marginBottom=0;whiteSpace=wrap;html=1;" parent="1" vertex="1">
                    <mxGeometry x="29" y="198" width="140" height="120" as="geometry">
                        <mxRectangle x="29" y="198" width="90" height="30" as="alternateBounds"/>
                    </mxGeometry>
                </mxCell>
                <mxCell id="5nAgZblk7XmkAS8E7ctY-2" value="name : String" style="text;strokeColor=none;fillColor=none;align=left;verticalAlign=middle;spacingLeft=4;spacingRight=4;overflow=hidden;points=[[0,0.5],[1,0.5]];portConstraint=eastwest;rotatable=0;whiteSpace=wrap;html=1;" parent="5nAgZblk7XmkAS8E7ctY-1" vertex="1">
                    <mxGeometry y="30" width="140" height="30" as="geometry"/>
                </mxCell>
                <mxCell id="5nAgZblk7XmkAS8E7ctY-4" value="headquarters : String" style="text;strokeColor=none;fillColor=none;align=left;verticalAlign=middle;spacingLeft=4;spacingRight=4;overflow=hidden;points=[[0,0.5],[1,0.5]];portConstraint=eastwest;rotatable=0;whiteSpace=wrap;html=1;" parent="5nAgZblk7XmkAS8E7ctY-1" vertex="1">
                    <mxGeometry y="60" width="140" height="30" as="geometry"/>
                </mxCell>
                <mxCell id="5nAgZblk7XmkAS8E7ctY-33" value="id_company : Integer (PK)" style="text;strokeColor=none;fillColor=none;align=left;verticalAlign=middle;spacingLeft=4;spacingRight=4;overflow=hidden;points=[[0,0.5],[1,0.5]];portConstraint=eastwest;rotatable=0;whiteSpace=wrap;html=1;" parent="5nAgZblk7XmkAS8E7ctY-1" vertex="1">
                    <mxGeometry y="90" width="140" height="30" as="geometry"/>
                </mxCell>
                <mxCell id="5nAgZblk7XmkAS8E7ctY-5" value="Product" style="swimlane;fontStyle=0;childLayout=stackLayout;horizontal=1;startSize=30;horizontalStack=0;resizeParent=1;resizeParentMax=0;resizeLast=0;collapsible=1;marginBottom=0;whiteSpace=wrap;html=1;" parent="1" vertex="1">
                    <mxGeometry x="439" y="226" width="140" height="150" as="geometry">
                        <mxRectangle x="439" y="203" width="80" height="30" as="alternateBounds"/>
                    </mxGeometry>
                </mxCell>
                <mxCell id="5nAgZblk7XmkAS8E7ctY-6" value="name : String" style="text;strokeColor=none;fillColor=none;align=left;verticalAlign=middle;spacingLeft=4;spacingRight=4;overflow=hidden;points=[[0,0.5],[1,0.5]];portConstraint=eastwest;rotatable=0;whiteSpace=wrap;html=1;" parent="5nAgZblk7XmkAS8E7ctY-5" vertex="1">
                    <mxGeometry y="30" width="140" height="30" as="geometry"/>
                </mxCell>
                <mxCell id="5nAgZblk7XmkAS8E7ctY-8" value="id_product&amp;nbsp; : Integer&amp;nbsp; (PK)" style="text;strokeColor=none;fillColor=none;align=left;verticalAlign=middle;spacingLeft=4;spacingRight=4;overflow=hidden;points=[[0,0.5],[1,0.5]];portConstraint=eastwest;rotatable=0;whiteSpace=wrap;html=1;" parent="5nAgZblk7XmkAS8E7ctY-5" vertex="1">
                    <mxGeometry y="60" width="140" height="30" as="geometry"/>
                </mxCell>
                <mxCell id="5nAgZblk7XmkAS8E7ctY-40" value="company&amp;nbsp;: Integer (FK1)" style="text;strokeColor=none;fillColor=none;align=left;verticalAlign=middle;spacingLeft=4;spacingRight=4;overflow=hidden;points=[[0,0.5],[1,0.5]];portConstraint=eastwest;rotatable=0;whiteSpace=wrap;html=1;" parent="5nAgZblk7XmkAS8E7ctY-5" vertex="1">
                    <mxGeometry y="90" width="140" height="30" as="geometry"/>
                </mxCell>
                <mxCell id="5nAgZblk7XmkAS8E7ctY-54" value="id : Integer (FK3)" style="text;strokeColor=none;fillColor=none;align=left;verticalAlign=middle;spacingLeft=4;spacingRight=4;overflow=hidden;points=[[0,0.5],[1,0.5]];portConstraint=eastwest;rotatable=0;whiteSpace=wrap;html=1;" parent="5nAgZblk7XmkAS8E7ctY-5" vertex="1">
                    <mxGeometry y="120" width="140" height="30" as="geometry"/>
                </mxCell>
                <mxCell id="5nAgZblk7XmkAS8E7ctY-11" value="Music" style="swimlane;fontStyle=0;childLayout=stackLayout;horizontal=1;startSize=30;horizontalStack=0;resizeParent=1;resizeParentMax=0;resizeLast=0;collapsible=1;marginBottom=0;whiteSpace=wrap;html=1;" parent="1" vertex="1">
                    <mxGeometry x="652" y="198" width="140" height="210" as="geometry">
                        <mxRectangle x="652" y="198" width="90" height="30" as="alternateBounds"/>
                    </mxGeometry>
                </mxCell>
                <mxCell id="5nAgZblk7XmkAS8E7ctY-12" value="name : String" style="text;strokeColor=none;fillColor=none;align=left;verticalAlign=middle;spacingLeft=4;spacingRight=4;overflow=hidden;points=[[0,0.5],[1,0.5]];portConstraint=eastwest;rotatable=0;whiteSpace=wrap;html=1;" parent="5nAgZblk7XmkAS8E7ctY-11" vertex="1">
                    <mxGeometry y="30" width="140" height="30" as="geometry"/>
                </mxCell>
                <mxCell id="5nAgZblk7XmkAS8E7ctY-13" value="artist&amp;nbsp; : String" style="text;strokeColor=none;fillColor=none;align=left;verticalAlign=middle;spacingLeft=4;spacingRight=4;overflow=hidden;points=[[0,0.5],[1,0.5]];portConstraint=eastwest;rotatable=0;whiteSpace=wrap;html=1;" parent="5nAgZblk7XmkAS8E7ctY-11" vertex="1">
                    <mxGeometry y="60" width="140" height="30" as="geometry"/>
                </mxCell>
                <mxCell id="5nAgZblk7XmkAS8E7ctY-14" value="genre : String" style="text;strokeColor=none;fillColor=none;align=left;verticalAlign=middle;spacingLeft=4;spacingRight=4;overflow=hidden;points=[[0,0.5],[1,0.5]];portConstraint=eastwest;rotatable=0;whiteSpace=wrap;html=1;" parent="5nAgZblk7XmkAS8E7ctY-11" vertex="1">
                    <mxGeometry y="90" width="140" height="30" as="geometry"/>
                </mxCell>
                <mxCell id="5nAgZblk7XmkAS8E7ctY-41" value="game : Integer (FK1)" style="text;strokeColor=none;fillColor=none;align=left;verticalAlign=middle;spacingLeft=4;spacingRight=4;overflow=hidden;points=[[0,0.5],[1,0.5]];portConstraint=eastwest;rotatable=0;whiteSpace=wrap;html=1;" parent="5nAgZblk7XmkAS8E7ctY-11" vertex="1">
                    <mxGeometry y="120" width="140" height="30" as="geometry"/>
                </mxCell>
                <mxCell id="5nAgZblk7XmkAS8E7ctY-44" value="id_music : Integer (PK)" style="text;strokeColor=none;fillColor=none;align=left;verticalAlign=middle;spacingLeft=4;spacingRight=4;overflow=hidden;points=[[0,0.5],[1,0.5]];portConstraint=eastwest;rotatable=0;whiteSpace=wrap;html=1;" parent="5nAgZblk7XmkAS8E7ctY-11" vertex="1">
                    <mxGeometry y="150" width="140" height="30" as="geometry"/>
                </mxCell>
                <mxCell id="5nAgZblk7XmkAS8E7ctY-59" value="type : Integer (FK2)" style="text;strokeColor=none;fillColor=none;align=left;verticalAlign=middle;spacingLeft=4;spacingRight=4;overflow=hidden;points=[[0,0.5],[1,0.5]];portConstraint=eastwest;rotatable=0;whiteSpace=wrap;html=1;" parent="5nAgZblk7XmkAS8E7ctY-11" vertex="1">
                    <mxGeometry y="180" width="140" height="30" as="geometry"/>
                </mxCell>
                <mxCell id="5nAgZblk7XmkAS8E7ctY-19" style="edgeStyle=orthogonalEdgeStyle;rounded=0;orthogonalLoop=1;jettySize=auto;html=1;entryX=0.351;entryY=-0.08;entryDx=0;entryDy=0;entryPerimeter=0;endArrow=none;endFill=0;" parent="1" edge="1">
                    <mxGeometry relative="1" as="geometry">
                        <mxPoint x="722" y="410" as="sourcePoint"/>
                        <mxPoint x="721.4999999999999" y="488.5999999999999" as="targetPoint"/>
                    </mxGeometry>
                </mxCell>
                <mxCell id="5nAgZblk7XmkAS8E7ctY-20" value="Game" style="swimlane;fontStyle=0;childLayout=stackLayout;horizontal=1;startSize=30;horizontalStack=0;resizeParent=1;resizeParentMax=0;resizeLast=0;collapsible=1;marginBottom=0;whiteSpace=wrap;html=1;" parent="1" vertex="1">
                    <mxGeometry x="632" y="568" width="140" height="150" as="geometry"/>
                </mxCell>
                <mxCell id="5nAgZblk7XmkAS8E7ctY-21" value="name : String" style="text;strokeColor=none;fillColor=none;align=left;verticalAlign=middle;spacingLeft=4;spacingRight=4;overflow=hidden;points=[[0,0.5],[1,0.5]];portConstraint=eastwest;rotatable=0;whiteSpace=wrap;html=1;" parent="5nAgZblk7XmkAS8E7ctY-20" vertex="1">
                    <mxGeometry y="30" width="140" height="30" as="geometry"/>
                </mxCell>
                <mxCell id="5nAgZblk7XmkAS8E7ctY-22" value="type : String" style="text;strokeColor=none;fillColor=none;align=left;verticalAlign=middle;spacingLeft=4;spacingRight=4;overflow=hidden;points=[[0,0.5],[1,0.5]];portConstraint=eastwest;rotatable=0;whiteSpace=wrap;html=1;" parent="5nAgZblk7XmkAS8E7ctY-20" vertex="1">
                    <mxGeometry y="60" width="140" height="30" as="geometry"/>
                </mxCell>
                <mxCell id="5nAgZblk7XmkAS8E7ctY-32" value="id_game : Integer (PK)" style="text;strokeColor=none;fillColor=none;align=left;verticalAlign=middle;spacingLeft=4;spacingRight=4;overflow=hidden;points=[[0,0.5],[1,0.5]];portConstraint=eastwest;rotatable=0;whiteSpace=wrap;html=1;" parent="5nAgZblk7XmkAS8E7ctY-20" vertex="1">
                    <mxGeometry y="90" width="140" height="30" as="geometry"/>
                </mxCell>
                <mxCell id="5nAgZblk7XmkAS8E7ctY-58" value="type : Integer (FK1)" style="text;strokeColor=none;fillColor=none;align=left;verticalAlign=middle;spacingLeft=4;spacingRight=4;overflow=hidden;points=[[0,0.5],[1,0.5]];portConstraint=eastwest;rotatable=0;whiteSpace=wrap;html=1;" parent="5nAgZblk7XmkAS8E7ctY-20" vertex="1">
                    <mxGeometry y="120" width="140" height="30" as="geometry"/>
                </mxCell>
                <mxCell id="5nAgZblk7XmkAS8E7ctY-25" value="DLC" style="swimlane;fontStyle=0;childLayout=stackLayout;horizontal=1;startSize=30;horizontalStack=0;resizeParent=1;resizeParentMax=0;resizeLast=0;collapsible=1;marginBottom=0;whiteSpace=wrap;html=1;" parent="1" vertex="1">
                    <mxGeometry x="277" y="553" width="140" height="180" as="geometry">
                        <mxRectangle x="277" y="490" width="90" height="30" as="alternateBounds"/>
                    </mxGeometry>
                </mxCell>
                <mxCell id="5nAgZblk7XmkAS8E7ctY-26" value="name : String" style="text;strokeColor=none;fillColor=none;align=left;verticalAlign=middle;spacingLeft=4;spacingRight=4;overflow=hidden;points=[[0,0.5],[1,0.5]];portConstraint=eastwest;rotatable=0;whiteSpace=wrap;html=1;" parent="5nAgZblk7XmkAS8E7ctY-25" vertex="1">
                    <mxGeometry y="30" width="140" height="30" as="geometry"/>
                </mxCell>
                <mxCell id="5nAgZblk7XmkAS8E7ctY-28" value="date : Date" style="text;strokeColor=none;fillColor=none;align=left;verticalAlign=middle;spacingLeft=4;spacingRight=4;overflow=hidden;points=[[0,0.5],[1,0.5]];portConstraint=eastwest;rotatable=0;whiteSpace=wrap;html=1;" parent="5nAgZblk7XmkAS8E7ctY-25" vertex="1">
                    <mxGeometry y="60" width="140" height="30" as="geometry"/>
                </mxCell>
                <mxCell id="5nAgZblk7XmkAS8E7ctY-35" value="game : Integer (FK1)" style="text;strokeColor=none;fillColor=none;align=left;verticalAlign=middle;spacingLeft=4;spacingRight=4;overflow=hidden;points=[[0,0.5],[1,0.5]];portConstraint=eastwest;rotatable=0;whiteSpace=wrap;html=1;" parent="5nAgZblk7XmkAS8E7ctY-25" vertex="1">
                    <mxGeometry y="90" width="140" height="30" as="geometry"/>
                </mxCell>
                <mxCell id="5nAgZblk7XmkAS8E7ctY-48" value="id_dlc : Integer (PK)" style="text;strokeColor=none;fillColor=none;align=left;verticalAlign=middle;spacingLeft=4;spacingRight=4;overflow=hidden;points=[[0,0.5],[1,0.5]];portConstraint=eastwest;rotatable=0;whiteSpace=wrap;html=1;" parent="5nAgZblk7XmkAS8E7ctY-25" vertex="1">
                    <mxGeometry y="120" width="140" height="30" as="geometry"/>
                </mxCell>
                <mxCell id="5nAgZblk7XmkAS8E7ctY-57" value="type : Integer (FK2)" style="text;strokeColor=none;fillColor=none;align=left;verticalAlign=middle;spacingLeft=4;spacingRight=4;overflow=hidden;points=[[0,0.5],[1,0.5]];portConstraint=eastwest;rotatable=0;whiteSpace=wrap;html=1;" parent="5nAgZblk7XmkAS8E7ctY-25" vertex="1">
                    <mxGeometry y="150" width="140" height="30" as="geometry"/>
                </mxCell>
                <mxCell id="5nAgZblk7XmkAS8E7ctY-31" value="" style="endArrow=none;html=1;rounded=0;exitX=0.629;exitY=-0.013;exitDx=0;exitDy=0;exitPerimeter=0;" parent="1" source="5nAgZblk7XmkAS8E7ctY-20" edge="1">
                    <mxGeometry width="50" height="50" relative="1" as="geometry">
                        <mxPoint x="705" y="553" as="sourcePoint"/>
                        <mxPoint x="720" y="517" as="targetPoint"/>
                    </mxGeometry>
                </mxCell>
                <mxCell id="5nAgZblk7XmkAS8E7ctY-49" value="Type" style="swimlane;fontStyle=0;childLayout=stackLayout;horizontal=1;startSize=30;horizontalStack=0;resizeParent=1;resizeParentMax=0;resizeLast=0;collapsible=1;marginBottom=0;whiteSpace=wrap;html=1;" parent="1" vertex="1">
                    <mxGeometry x="20" y="470" width="140" height="90" as="geometry"/>
                </mxCell>
                <mxCell id="5nAgZblk7XmkAS8E7ctY-51" value="type_id : Integer&amp;nbsp; (PK)" style="text;strokeColor=none;fillColor=none;align=left;verticalAlign=middle;spacingLeft=4;spacingRight=4;overflow=hidden;points=[[0,0.5],[1,0.5]];portConstraint=eastwest;rotatable=0;whiteSpace=wrap;html=1;" parent="5nAgZblk7XmkAS8E7ctY-49" vertex="1">
                    <mxGeometry y="30" width="140" height="30" as="geometry"/>
                </mxCell>
                <mxCell id="5nAgZblk7XmkAS8E7ctY-52" value="name : String&amp;nbsp;" style="text;strokeColor=none;fillColor=none;align=left;verticalAlign=middle;spacingLeft=4;spacingRight=4;overflow=hidden;points=[[0,0.5],[1,0.5]];portConstraint=eastwest;rotatable=0;whiteSpace=wrap;html=1;" parent="5nAgZblk7XmkAS8E7ctY-49" vertex="1">
                    <mxGeometry y="60" width="140" height="30" as="geometry"/>
                </mxCell>
                <mxCell id="5nAgZblk7XmkAS8E7ctY-60" value="Reference" style="swimlane;fontStyle=0;childLayout=stackLayout;horizontal=1;startSize=30;horizontalStack=0;resizeParent=1;resizeParentMax=0;resizeLast=0;collapsible=1;marginBottom=0;whiteSpace=wrap;html=1;" parent="1" vertex="1">
                    <mxGeometry x="210" y="320" width="140" height="90" as="geometry"/>
                </mxCell>
                <mxCell id="5nAgZblk7XmkAS8E7ctY-61" value="type : Integer (FK1)" style="text;strokeColor=none;fillColor=none;align=left;verticalAlign=middle;spacingLeft=4;spacingRight=4;overflow=hidden;points=[[0,0.5],[1,0.5]];portConstraint=eastwest;rotatable=0;whiteSpace=wrap;html=1;" parent="5nAgZblk7XmkAS8E7ctY-60" vertex="1">
                    <mxGeometry y="30" width="140" height="30" as="geometry"/>
                </mxCell>
                <mxCell id="5nAgZblk7XmkAS8E7ctY-63" value="id : Integer&amp;nbsp; (FK2) (PK)&amp;nbsp;&amp;nbsp;&lt;br&gt;" style="text;strokeColor=none;fillColor=none;align=left;verticalAlign=middle;spacingLeft=4;spacingRight=4;overflow=hidden;points=[[0,0.5],[1,0.5]];portConstraint=eastwest;rotatable=0;whiteSpace=wrap;html=1;" parent="5nAgZblk7XmkAS8E7ctY-60" vertex="1">
                    <mxGeometry y="60" width="140" height="30" as="geometry"/>
                </mxCell>
                <mxCell id="5nAgZblk7XmkAS8E7ctY-64" style="edgeStyle=orthogonalEdgeStyle;rounded=0;orthogonalLoop=1;jettySize=auto;html=1;endArrow=none;endFill=0;" parent="1" source="5nAgZblk7XmkAS8E7ctY-61" target="5nAgZblk7XmkAS8E7ctY-49" edge="1">
                    <mxGeometry relative="1" as="geometry"/>
                </mxCell>
                <mxCell id="5nAgZblk7XmkAS8E7ctY-66" style="edgeStyle=orthogonalEdgeStyle;rounded=0;orthogonalLoop=1;jettySize=auto;html=1;entryX=0;entryY=0.5;entryDx=0;entryDy=0;endArrow=none;endFill=0;" parent="1" source="5nAgZblk7XmkAS8E7ctY-61" target="5nAgZblk7XmkAS8E7ctY-40" edge="1">
                    <mxGeometry relative="1" as="geometry"/>
                </mxCell>
                <mxCell id="5nAgZblk7XmkAS8E7ctY-67" value="Este id seria, o id do jogo, dlc, musica, dependendo do tipo" style="text;html=1;align=center;verticalAlign=middle;resizable=0;points=[];autosize=1;strokeColor=none;fillColor=none;" parent="1" vertex="1">
                    <mxGeometry x="115" y="410" width="330" height="30" as="geometry"/>
                </mxCell>
                <mxCell id="5nAgZblk7XmkAS8E7ctY-68" value="Este name seria&amp;nbsp;(dlc, game, music)" style="text;html=1;align=center;verticalAlign=middle;resizable=0;points=[];autosize=1;strokeColor=none;fillColor=none;" parent="1" vertex="1">
                    <mxGeometry y="568" width="210" height="30" as="geometry"/>
                </mxCell>
            </root>
        </mxGraphModel>
    </diagram>
</mxfile>